# xmcd CD database file
#
# Track frame offsets:
#	150
#	8877
#	23322
#	42628
#	52212
#	67524
#	77462
#	89211
#
# Disc length: 1401 seconds
#
# Revision: 0
# Processed by: cddbd v1.5.2PL0 Copyright (c) Steve Scherf et al.
# Submitted via: CDex 1.70beta3
#
DISCID=5a057708
DTITLE=Joe Derise - Joe Derise Sings
DYEAR=1955
DGENRE=Jazz
TTITLE0=Comes Love
TTITLE1=It Might As Well Be Spring
TTITLE2=My Romance
TTITLE3=Meybe
TTITLE4=How High The Moon
TTITLE5=A Fine Romance
TTITLE6=Mountain Greenery
TTITLE7=How Long Has This Been Going On
EXTD=YEAR: 1955
EXTT0=
EXTT1=
EXTT2=
EXTT3=
EXTT4=
EXTT5=
EXTT6=
EXTT7=
PLAYORDER=
